<svg width="175" height="70" viewBox="0 0 175 70" fill="none" xmlns="http://www.w3.org/2000/svg">
<path d="M51.0024 10.8751C52.6053 12.4633 52.1725 15.4652 50.0353 17.5799C47.8981 19.6946 44.8715 20.1264 43.2686 18.5382C41.6657 16.9499 42.0985 13.948 44.2357 11.8333C46.3729 9.71569 49.3995 9.2898 51.0024 10.8751ZM48.6175 16.181C49.9726 14.8412 50.4024 13.0932 49.5846 12.2799C48.7608 11.4695 47.0027 11.8954 45.6475 13.2382C44.2954 14.578 43.8656 16.3259 44.6834 17.1363C45.5073 17.9466 47.2653 17.5207 48.6175 16.181Z" fill="#1D1D1B"/>
<path d="M48.7459 0.00295758C45.7402 0.00295758 43.0508 1.33978 41.2479 3.44558C40.4719 4.3506 39.845 5.40054 39.4421 6.54512C38.9764 7.89674 37.687 8.86683 36.1677 8.86683C34.2544 8.86683 32.7052 7.33184 32.7052 5.43603V3.43671C32.7052 2.789 32.5232 2.18269 32.2068 1.66216C31.5978 0.668413 30.4994 0.00295758 29.2428 0.00295758H9.83814C4.40269 0.00295758 0 4.3713 0 9.75114C0 14.85 3.94898 19.032 8.98148 19.4609V58.6725C8.98148 61.6655 11.4291 64.0908 14.4498 64.0908H25.1147C28.0041 64.1351 30.5114 65.3329 31.8217 67.0838C33.0306 68.6573 33.7858 70 33.7858 70C33.7858 70 34.5409 68.6573 35.7498 67.0868L35.7647 67.0631C37.0781 65.3241 39.5764 64.1381 42.4568 64.0937H53.1218C56.1424 64.0937 58.5841 61.6685 58.5841 58.6754V0H48.7459V0.00295758ZM17.9033 62.1033H14.3722C12.4648 62.1033 10.9187 60.5712 10.9187 58.6754L10.9097 19.4964H11.7395C14.0289 19.4964 16.0974 18.5559 17.5719 17.0416L17.9003 16.3229V62.1033H17.9033ZM10.9187 17.5444V11.4695C10.9187 9.35187 12.7066 8.04757 14.4378 8.04757C16.169 8.04757 17.8973 9.42877 17.8973 11.4754C17.8973 14.0988 15.8706 17.5207 11.8141 17.5207L10.9187 17.5473V17.5444ZM56.5842 58.6725C56.5842 60.5683 55.0351 62.1062 53.1218 62.1062H42.3135C39.9077 62.1654 37.7168 62.9077 36.0483 64.0908C35.2364 64.6645 34.5559 65.3507 34.0245 66.1078L33.7858 66.933L33.547 66.1019C33.4903 66.0221 33.4425 65.9422 33.3828 65.8624C32.8754 65.1999 32.2515 64.6024 31.5262 64.0878C29.8547 62.9018 27.6668 62.1624 25.261 62.1033H19.921V11.4725C19.921 8.47643 17.4734 6.04825 14.4527 6.04825C11.4321 6.04825 8.98446 8.47347 8.98446 11.4725V17.4734C5.05637 17.0504 2.00285 13.7587 2.00285 9.76001C2.00285 5.47744 5.51007 2.00228 9.83217 2.00228H29.6577C30.2129 2.00228 30.6666 2.45183 30.6666 3.0049V5.43603C30.6666 8.43502 33.1231 10.8661 36.1498 10.8661C37.1616 10.8661 38.1049 10.5911 38.9197 10.1179C39.9555 9.51453 40.8509 8.52966 41.242 7.47972C42.224 4.29736 45.2148 1.98454 48.7489 1.98454H56.5872V58.6725H56.5842Z" fill="#1D1D1B"/>
<path d="M68.6607 23.8943H67.4996V26.7898H65.8311V19.6058H67.4996V22.5102H68.7025L70.6068 19.6058H72.3769L70.0039 23.0751L72.4485 26.7898H70.5442L68.6577 23.8943H68.6607Z" fill="#1D1D1B"/>
<path d="M78.0034 25.2489H74.6364L73.9947 26.7898H72.2754L75.508 19.6058H77.1646L80.4062 26.7898H78.6451L78.0034 25.2489ZM77.475 23.986L76.3259 21.2355L75.1767 23.986H77.475Z" fill="#1D1D1B"/>
<path d="M86.4806 23.7139C86.7194 24.0185 86.8388 24.3734 86.8388 24.7757C86.8388 25.2134 86.6925 25.592 86.403 25.9143C86.1134 26.2367 85.7224 26.4822 85.2269 26.6537C84.7314 26.8253 84.1942 26.911 83.6062 26.911C83.1077 26.911 82.6122 26.8489 82.1197 26.7277C81.6272 26.6035 81.1586 26.4171 80.7168 26.1628L81.2332 24.9709C81.5496 25.1631 81.9018 25.308 82.2839 25.4086C82.6659 25.5092 83.042 25.5565 83.4062 25.5565C83.9046 25.5565 84.3165 25.4677 84.6449 25.2903C84.9732 25.1128 85.1374 24.8614 85.1374 24.542C85.1374 24.2758 85.024 24.0747 84.8001 23.9357C84.5762 23.7967 84.2688 23.7316 83.8837 23.7316H82.1137V22.4806H83.7614C84.0987 22.4806 84.3643 22.4126 84.5553 22.2765C84.7464 22.1405 84.8389 21.9512 84.8389 21.7116C84.8389 21.4306 84.7016 21.2118 84.43 21.055C84.1583 20.8983 83.8061 20.8184 83.3793 20.8184C83.0629 20.8184 82.7346 20.8598 82.3943 20.9456C82.057 21.0314 81.7346 21.1586 81.4302 21.3301L80.9227 20.0376C81.6899 19.6472 82.5167 19.452 83.4091 19.452C83.9763 19.452 84.4956 19.5348 84.9732 19.6975C85.4508 19.8631 85.8299 20.1027 86.1134 20.4162C86.397 20.7297 86.5373 21.0964 86.5373 21.5135C86.5373 21.8565 86.4448 22.1612 86.2567 22.4274C86.0717 22.6935 85.815 22.9006 85.4896 23.0425C85.9105 23.1875 86.2418 23.4093 86.4776 23.7139H86.4806Z" fill="#1D1D1B"/>
<path d="M93.0737 25.2489H89.7067L89.065 26.7898H87.3457L90.5783 19.6058H92.2349L95.4765 26.7898H93.7154L93.0737 25.2489ZM92.5453 23.986L91.3962 21.2355L90.247 23.986H92.5453Z" fill="#1D1D1B"/>
<path d="M103.088 19.6058V26.7898H101.41V23.844H98.1179V26.7898H96.4404V19.6058H98.1179V22.4392H101.41V19.6058H103.088Z" fill="#1D1D1B"/>
<path d="M106.327 26.4348C105.73 26.1154 105.261 25.6747 104.918 25.1098C104.574 24.5449 104.404 23.9091 104.404 23.1963C104.404 22.4835 104.574 21.8476 104.918 21.2827C105.258 20.7178 105.73 20.2772 106.327 19.9577C106.924 19.6383 107.595 19.4816 108.341 19.4816C108.971 19.4816 109.538 19.591 110.046 19.8099C110.553 20.0287 110.98 20.3422 111.326 20.7533L110.249 21.7382C109.759 21.1763 109.15 20.8953 108.425 20.8953C107.977 20.8953 107.574 20.9929 107.222 21.1881C106.87 21.3833 106.595 21.6554 106.398 22.0044C106.201 22.3534 106.103 22.7497 106.103 23.1963C106.103 23.6429 106.201 24.0362 106.398 24.3882C106.595 24.7372 106.87 25.0093 107.222 25.2045C107.574 25.3997 107.974 25.4973 108.425 25.4973C109.15 25.4973 109.756 25.2134 110.249 24.6455L111.326 25.6304C110.98 26.0474 110.553 26.3668 110.043 26.5857C109.532 26.8045 108.962 26.914 108.332 26.914C107.592 26.914 106.927 26.7543 106.33 26.4378L106.327 26.4348Z" fill="#1D1D1B"/>
<path d="M115.227 23.8943H114.066V26.7898H112.397V19.6058H114.066V22.5102H115.269L117.173 19.6058H118.943L116.57 23.0751L119.015 26.7898H117.111L115.224 23.8943H115.227Z" fill="#1D1D1B"/>
<path d="M121.201 26.4289C120.598 26.1065 120.123 25.6659 119.783 25.101C119.443 24.5361 119.27 23.9031 119.27 23.1963C119.27 22.4894 119.44 21.8565 119.783 21.2916C120.126 20.7267 120.598 20.2831 121.201 19.9637C121.804 19.6413 122.484 19.4816 123.236 19.4816C123.989 19.4816 124.666 19.6413 125.266 19.9637C125.866 20.286 126.341 20.7297 126.684 21.2916C127.03 21.8565 127.2 22.4894 127.2 23.1963C127.2 23.9031 127.027 24.5361 126.684 25.101C126.338 25.6659 125.866 26.1095 125.266 26.4289C124.666 26.7513 123.989 26.911 123.236 26.911C122.484 26.911 121.807 26.7513 121.201 26.4289ZM124.398 25.2015C124.744 25.0063 125.012 24.7342 125.209 24.3852C125.406 24.0362 125.505 23.6399 125.505 23.1933C125.505 22.7467 125.406 22.3504 125.209 22.0014C125.012 21.6524 124.741 21.3803 124.398 21.1851C124.051 20.9899 123.666 20.8923 123.236 20.8923C122.807 20.8923 122.422 20.9899 122.075 21.1851C121.729 21.3803 121.457 21.6524 121.263 22.0014C121.069 22.3504 120.968 22.7467 120.968 23.1933C120.968 23.6399 121.066 24.0333 121.263 24.3852C121.46 24.7342 121.732 25.0063 122.075 25.2015C122.422 25.3967 122.807 25.4943 123.236 25.4943C123.666 25.4943 124.051 25.3967 124.398 25.2015Z" fill="#1D1D1B"/>
<path d="M134.11 25.453V26.7869H128.495V19.6029H133.975V20.9368H130.164V22.4984H133.531V23.7908H130.164V25.453H134.11Z" fill="#1D1D1B"/>
<path d="M67.1591 32.0277L68.6605 34.2045L70.1619 32.0277H72.1289L69.7171 35.4644L72.3259 39.2117H70.3469L68.6575 36.8308L66.9889 39.2117H65.0518L67.6426 35.5384L65.2189 32.0277H67.1561H67.1591Z" fill="#1D1D1B"/>
<path d="M79.7737 32.0276L76.6873 37.7121C76.3918 38.2592 76.0336 38.6733 75.6157 38.9543C75.1979 39.2352 74.7442 39.3742 74.2546 39.3742C73.8756 39.3742 73.4816 39.2914 73.0726 39.1288L73.4756 37.8659C73.7651 37.9546 74.0069 37.999 74.2009 37.999C74.4069 37.999 74.5949 37.9487 74.7591 37.8511C74.9262 37.7535 75.0755 37.5967 75.2158 37.3838L75.2785 37.301L72.4189 32.0247H74.2099L76.1351 35.8843L78.123 32.0247H79.7707L79.7737 32.0276Z" fill="#1D1D1B"/>
<path d="M87.5222 37.8571V40.6993H85.9671V39.2117H80.851V40.6993H79.2959L79.3078 37.8571H79.5974C80.0332 37.8423 80.3406 37.5288 80.5197 36.9136C80.6988 36.2985 80.8092 35.4201 80.851 34.2755L80.9346 32.0277H86.5073V37.8571H87.5222ZM82.1166 36.5794C82.0062 37.1591 81.836 37.582 81.6092 37.8571H84.8507V33.3823H82.3643L82.3345 34.4293C82.2987 35.284 82.227 35.9997 82.1166 36.5794Z" fill="#1D1D1B"/>
<path d="M90.0738 38.8508C89.4708 38.5284 88.9963 38.0877 88.656 37.5228C88.3157 36.9579 88.1426 36.325 88.1426 35.6182C88.1426 34.9113 88.3127 34.2784 88.656 33.7135C88.9992 33.1486 89.4708 32.7049 90.0738 32.3855C90.6767 32.0632 91.3573 31.9034 92.1095 31.9034C92.8617 31.9034 93.5392 32.0632 94.1392 32.3855C94.7392 32.7079 95.2137 33.1515 95.557 33.7135C95.9033 34.2784 96.0734 34.9113 96.0734 35.6182C96.0734 36.325 95.9003 36.9579 95.557 37.5228C95.2108 38.0877 94.7392 38.5314 94.1392 38.8508C93.5392 39.1732 92.8617 39.3329 92.1095 39.3329C91.3573 39.3329 90.6797 39.1732 90.0738 38.8508ZM93.2706 37.6234C93.6168 37.4282 93.8855 37.1561 94.0825 36.8071C94.2795 36.4581 94.378 36.0618 94.378 35.6152C94.378 35.1686 94.2795 34.7723 94.0825 34.4233C93.8855 34.0743 93.6139 33.8022 93.2706 33.607C92.9243 33.4118 92.5393 33.3142 92.1095 33.3142C91.6797 33.3142 91.2946 33.4118 90.9484 33.607C90.6021 33.8022 90.3305 34.0743 90.1365 34.4233C89.9425 34.7723 89.841 35.1686 89.841 35.6152C89.841 36.0618 89.9395 36.4552 90.1365 36.8071C90.3335 37.1561 90.6051 37.4282 90.9484 37.6234C91.2946 37.8186 91.6797 37.9162 92.1095 37.9162C92.5393 37.9162 92.9243 37.8186 93.2706 37.6234Z" fill="#1D1D1B"/>
<path d="M103.691 36.3162H102.635V39.2117H100.987V36.3162H99.9096L98.2829 39.2117H96.3457L98.5217 35.4555L96.48 32.0277H98.2501L99.8768 34.9321H100.984V32.0277H102.632V34.9321H103.709L105.345 32.0277H107.115L105.085 35.4555L107.249 39.2117H105.312L103.685 36.3162H103.691Z" fill="#1D1D1B"/>
<path d="M113.675 37.8748V39.2086H108.061V32.0247H113.541V33.3585H109.729V34.9201H113.096V36.2126H109.729V37.8748H113.675Z" fill="#1D1D1B"/>
<path d="M116.228 38.8567C115.631 38.5373 115.162 38.0966 114.819 37.5317C114.476 36.9668 114.306 36.3309 114.306 35.6182C114.306 34.9054 114.476 34.2695 114.819 33.7046C115.159 33.1397 115.631 32.699 116.228 32.3796C116.825 32.0602 117.496 31.9034 118.243 31.9034C118.873 31.9034 119.44 32.0129 119.947 32.2317C120.454 32.4506 120.881 32.7641 121.228 33.1752L120.15 34.1601C119.661 33.5981 119.052 33.3172 118.326 33.3172C117.879 33.3172 117.476 33.4148 117.123 33.61C116.771 33.8052 116.497 34.0773 116.3 34.4263C116.103 34.7753 116.004 35.1716 116.004 35.6182C116.004 36.0648 116.103 36.4581 116.3 36.8101C116.497 37.1591 116.771 37.4312 117.123 37.6264C117.476 37.8216 117.876 37.9192 118.326 37.9192C119.052 37.9192 119.658 37.6352 120.15 37.0674L121.228 38.0523C120.881 38.4693 120.454 38.7887 119.944 39.0075C119.434 39.2264 118.864 39.3358 118.234 39.3358C117.493 39.3358 116.828 39.1761 116.231 38.8597L116.228 38.8567Z" fill="#1D1D1B"/>
<path d="M128 33.3823H125.681V39.2117H124.024V33.3823H121.714V32.0277H128V33.3823Z" fill="#1D1D1B"/>
<path d="M135.095 36.1002C135.331 36.393 135.447 36.7568 135.447 37.1886C135.447 37.8245 135.202 38.3213 134.716 38.6763C134.229 39.0312 133.534 39.2086 132.63 39.2086H129.057V32.0247H132.433C133.274 32.0247 133.931 32.1844 134.4 32.5067C134.868 32.8291 135.104 33.2875 135.104 33.882C135.104 34.2369 135.014 34.5504 134.835 34.8225C134.656 35.0917 134.403 35.3076 134.08 35.4643C134.522 35.5945 134.859 35.8074 135.095 36.1002ZM130.725 35.0029H132.289C132.656 35.0029 132.931 34.929 133.119 34.7811C133.304 34.6332 133.4 34.4173 133.4 34.1305C133.4 33.8436 133.304 33.6336 133.113 33.4827C132.922 33.3319 132.647 33.258 132.289 33.258H130.725V35.0029ZM133.749 37.0555C133.749 36.461 133.355 36.1623 132.567 36.1623H130.722V37.9783H132.567C133.355 37.9783 133.749 37.6707 133.749 37.0555Z" fill="#1D1D1B"/>
<path d="M142.387 37.8748V39.2086H136.772V32.0247H142.253V33.3585H138.441V34.9201H141.808V36.2126H138.441V37.8748H142.387Z" fill="#1D1D1B"/>
<path d="M150.392 32.0277V39.2117H148.715V36.2659H145.423V39.2117H143.745V32.0277H145.423V34.8611H148.715V32.0277H150.392Z" fill="#1D1D1B"/>
<path d="M158.854 32.0277V39.2117H157.177V36.2659H153.885V39.2117H152.207V32.0277H153.885V34.8611H157.177V32.0277H158.854Z" fill="#1D1D1B"/>
<path d="M162.09 38.8508C161.487 38.5284 161.013 38.0877 160.673 37.5228C160.332 36.9579 160.159 36.325 160.159 35.6182C160.159 34.9113 160.329 34.2784 160.673 33.7135C161.016 33.1486 161.487 32.7049 162.09 32.3855C162.693 32.0632 163.374 31.9034 164.126 31.9034C164.878 31.9034 165.556 32.0632 166.156 32.3855C166.756 32.7079 167.23 33.1515 167.574 33.7135C167.92 34.2784 168.09 34.9113 168.09 35.6182C168.09 36.325 167.917 36.9579 167.574 37.5228C167.227 38.0877 166.756 38.5314 166.156 38.8508C165.556 39.1732 164.878 39.3329 164.126 39.3329C163.374 39.3329 162.696 39.1732 162.09 38.8508ZM165.287 37.6234C165.633 37.4282 165.902 37.1561 166.099 36.8071C166.296 36.4581 166.395 36.0618 166.395 35.6152C166.395 35.1686 166.296 34.7723 166.099 34.4233C165.902 34.0743 165.63 33.8022 165.287 33.607C164.941 33.4118 164.556 33.3142 164.126 33.3142C163.696 33.3142 163.311 33.4118 162.965 33.607C162.619 33.8022 162.347 34.0743 162.153 34.4233C161.959 34.7723 161.858 35.1686 161.858 35.6152C161.858 36.0618 161.956 36.4552 162.153 36.8071C162.35 37.1561 162.622 37.4282 162.965 37.6234C163.311 37.8186 163.696 37.9162 164.126 37.9162C164.556 37.9162 164.941 37.8186 165.287 37.6234Z" fill="#1D1D1B"/>
<path d="M174.999 37.8748V39.2086H169.385V32.0247H174.865V33.3585H171.053V34.9201H174.42V36.2126H171.053V37.8748H174.999Z" fill="#1D1D1B"/>
<path d="M72.4006 44.4495L69.3143 50.134C69.0188 50.6811 68.6606 51.0952 68.2427 51.3761C67.8248 51.6571 67.3711 51.7961 66.8816 51.7961C66.5025 51.7961 66.1085 51.7133 65.6996 51.5506L66.1025 50.2878C66.3921 50.3765 66.6339 50.4208 66.8279 50.4208C67.0338 50.4208 67.2219 50.3706 67.386 50.273C67.5532 50.1754 67.7024 50.0186 67.8427 49.8057L67.9054 49.7229L65.0459 44.4465H66.8368L68.7621 48.3062L70.75 44.4465H72.3976L72.4006 44.4495Z" fill="#1D1D1B"/>
<path d="M79.3072 44.4495V51.6335H77.6506V49.0485C77.0237 49.2733 76.4387 49.3857 75.9014 49.3857C74.9284 49.3857 74.1822 49.155 73.6628 48.6936C73.1464 48.2322 72.8867 47.5668 72.8867 46.6973V44.4495H74.5433V46.5109C74.5433 47.0048 74.6747 47.3745 74.9433 47.623C75.2089 47.8744 75.594 47.9986 76.0984 47.9986C76.6506 47.9986 77.167 47.8921 77.6506 47.6792V44.4465H79.3072V44.4495Z" fill="#1D1D1B"/>
<path d="M81.1104 44.4495H82.7789V49.1284L86.2384 44.4495H87.8114V51.6334H86.1548V46.9634L82.6953 51.6334H81.1104V44.4495Z" fill="#1D1D1B"/>
<path d="M96.026 44.4495V51.6334H94.3694V45.804H91.883L91.8323 47.3035C91.7965 48.3239 91.7159 49.1491 91.5845 49.782C91.4532 50.4149 91.2353 50.8999 90.9279 51.2401C90.6204 51.5802 90.1906 51.7488 89.6384 51.7488C89.4115 51.7488 89.1339 51.7103 88.8086 51.6364L88.9131 50.2315C89.0026 50.2582 89.1041 50.2729 89.2145 50.2729C89.6145 50.2729 89.8951 50.0393 90.0533 49.569C90.2115 49.1017 90.313 48.3653 90.3548 47.3686L90.4592 44.4554H96.032L96.026 44.4495Z" fill="#1D1D1B"/>
<path d="M97.8379 44.4495H99.5064V49.1284L102.966 44.4495H104.539V51.6334H102.882V46.9634L99.4229 51.6334H97.8379V44.4495Z" fill="#1D1D1B"/>
<path d="M115.911 44.4495V51.6334H106.342V44.4495H108.01V50.2789H110.3V44.4495H111.968V50.2789H114.246V44.4495H115.914H115.911ZM116.896 50.2789V53.1211H115.341V51.6334H114.213V50.2789H116.896Z" fill="#1D1D1B"/>
<path d="M123.659 50.2966V51.6305H118.045V44.4465H123.525V45.7804H119.713V47.342H123.08V48.6345H119.713V50.2966H123.659Z" fill="#1D1D1B"/>
<path d="M127.946 44.4495H129.615V49.1284L133.074 44.4495H134.647V51.6334H132.991V46.9634L129.531 51.6334H127.946V44.4495Z" fill="#1D1D1B"/>
<path d="M143.05 51.6334L143.038 47.3331L140.904 50.8733H140.157L138.023 47.4159V51.6334H136.45V44.4495H137.838L140.551 48.9125L143.223 44.4495H144.611L144.623 51.6334H143.05Z" fill="#1D1D1B"/>
<path d="M152.037 50.2966V51.6305H146.423V44.4465H151.903V45.7804H148.091V47.342H151.458V48.6345H148.091V50.2966H152.037Z" fill="#1D1D1B"/>
<path d="M160.046 44.4495V51.6334H158.368V48.6877H155.076V51.6334H153.398V44.4495H155.076V47.2828H158.368V44.4495H160.046Z" fill="#1D1D1B"/>
<path d="M161.857 44.4495H163.526V49.1284L166.985 44.4495H168.558V51.6334H166.902V46.9634L163.442 51.6334H161.857V44.4495Z" fill="#1D1D1B"/>
<path d="M72.5018 56.8713V64.0553H70.8243V61.1096H67.532V64.0553H65.8545V56.8713H67.532V59.7047H70.8243V56.8713H72.5018Z" fill="#1D1D1B"/>
<path d="M74.0571 63.8482C73.8631 63.656 73.7676 63.4164 73.7676 63.1295C73.7676 62.8426 73.8631 62.5972 74.0571 62.4168C74.2511 62.2363 74.4899 62.1447 74.7705 62.1447C75.0511 62.1447 75.2928 62.2363 75.4839 62.4168C75.6779 62.5972 75.7734 62.8367 75.7734 63.1295C75.7734 63.4223 75.6779 63.656 75.4839 63.8482C75.2899 64.0405 75.0511 64.1351 74.7705 64.1351C74.4899 64.1351 74.2481 64.0405 74.0571 63.8482Z" fill="#1D1D1B"/>
<path d="M78.9258 56.8713H80.5943V61.5502L84.0538 56.8713H85.6268V64.0553H83.9702V59.3853L80.5107 64.0553H78.9258V56.8713Z" fill="#1D1D1B"/>
<path d="M87.1694 63.8482C86.9754 63.656 86.8799 63.4164 86.8799 63.1295C86.8799 62.8426 86.9754 62.5972 87.1694 62.4168C87.3634 62.2363 87.6022 62.1447 87.8828 62.1447C88.1634 62.1447 88.4052 62.2363 88.5962 62.4168C88.7902 62.5972 88.8857 62.8367 88.8857 63.1295C88.8857 63.4223 88.7902 63.656 88.5962 63.8482C88.4022 64.0405 88.1634 64.1351 87.8828 64.1351C87.6022 64.1351 87.3604 64.0405 87.1694 63.8482Z" fill="#1D1D1B"/>
<path d="M99.644 62.683C98.9903 63.2272 98.053 63.5288 96.8322 63.591V64.3718H95.2891V63.5821C94.0593 63.5141 93.1191 63.2065 92.4654 62.6623C91.8117 62.1181 91.4863 61.3787 91.4863 60.4411C91.4863 59.5036 91.8117 58.7553 92.4654 58.22C93.1191 57.6847 94.0593 57.3771 95.2891 57.3002V56.5608H96.8322V57.2884C98.053 57.3564 98.9933 57.664 99.644 58.2111C100.298 58.7583 100.623 59.5006 100.623 60.4382C100.623 61.3757 100.298 62.1358 99.644 62.68V62.683ZM95.2891 62.2867V58.6015C94.5488 58.6695 94.0026 58.8529 93.6474 59.1516C93.2922 59.4503 93.1131 59.8792 93.1131 60.4382C93.1131 61.5207 93.8384 62.1358 95.2891 62.2867ZM98.4679 61.7277C98.8261 61.4231 99.0052 60.9912 99.0052 60.4293C99.0052 59.335 98.2799 58.7257 96.8292 58.6015V62.2867C97.5605 62.2186 98.1068 62.0323 98.465 61.7277H98.4679Z" fill="#1D1D1B"/>
<path d="M107.491 62.7185V64.0524H101.876V56.8684H107.356V58.2023H103.545V59.7639H106.911V61.0563H103.545V62.7185H107.491Z" fill="#1D1D1B"/>
<path d="M118.418 56.8713V64.0553H108.849V56.8713H110.517V62.7007H112.807V56.8713H114.475V62.7007H116.753V56.8713H118.421H118.418Z" fill="#1D1D1B"/>
<path d="M120.218 56.8713H121.886V61.5502L125.346 56.8713H126.919V64.0553H125.262V59.3853L121.803 64.0553H120.218V56.8713Z" fill="#1D1D1B"/>
<path d="M135.373 56.8713V64.0553H133.695V61.1096H130.403V64.0553H128.726V56.8713H130.403V59.7047H133.695V56.8713H135.373Z" fill="#1D1D1B"/>
<path d="M141.679 62.5144H138.312L137.67 64.0553H135.951L139.184 56.8713H140.84L144.082 64.0553H142.321L141.679 62.5144ZM141.151 61.2515L140.002 58.501L138.852 61.2515H141.151Z" fill="#1D1D1B"/>
</svg>
